<svg width="42" height="42" viewBox="0 0 42 42" fill="none" xmlns="http://www.w3.org/2000/svg">
<rect width="42" height="42" rx="21" fill="#FF800B"/>
<path d="M25.4635 23.3906C25.4635 23.779 25.1487 24.0938 24.7604 24.0938H23.9869C23.054 24.0566 23.0547 22.7243 23.9869 22.6875H24.7604C25.1487 22.6875 25.4635 23.0023 25.4635 23.3906ZM26.8697 23.6719V17.9062H15.1304V27.1875C15.1304 27.9629 15.7612 28.5938 16.5366 28.5938H25.4635C26.2389 28.5938 26.8697 27.9629 26.8697 27.1875C26.8697 26.7992 27.1845 26.4844 27.5729 26.4844C27.9612 26.4844 28.276 26.7992 28.276 27.1875C28.276 28.7383 27.0143 30 25.4635 30H16.5366C14.9858 30 13.7241 28.7383 13.7241 27.1875V14.8125C13.7241 13.2617 14.9858 12 16.5366 12H25.4635C27.0143 12 28.276 13.2617 28.276 14.8125V23.6719C28.2389 24.6048 26.9066 24.6041 26.8697 23.6719ZM26.8697 16.5V14.8125C26.8697 14.0371 26.2389 13.4062 25.4635 13.4062H16.5366C15.7612 13.4062 15.1304 14.0371 15.1304 14.8125V16.5H26.8697ZM24.7604 20.0156H23.9869C23.054 20.0527 23.0547 21.3851 23.9869 21.4219H24.7604C25.6933 21.3848 25.6926 20.0524 24.7604 20.0156ZM24.7604 25.3594H23.9869C23.054 25.3965 23.0547 26.7288 23.9869 26.7656H24.7604C25.6933 26.7285 25.6926 25.3962 24.7604 25.3594ZM21.3854 22.6875H20.6119C19.679 22.7246 19.6797 24.0569 20.6119 24.0938H21.3854C22.3183 24.0566 22.3176 22.7243 21.3854 22.6875ZM21.3854 20.0156H20.6119C19.679 20.0527 19.6797 21.3851 20.6119 21.4219H21.3854C22.3183 21.3848 22.3176 20.0524 21.3854 20.0156ZM17.2397 21.4219H18.0132C18.9461 21.3848 18.9454 20.0524 18.0132 20.0156H17.2397C16.3068 20.0527 16.3075 21.3851 17.2397 21.4219ZM17.2721 26.7656H21.3151C22.248 26.7285 22.2473 25.3962 21.3151 25.3594H17.2721C16.3392 25.3965 16.3399 26.7288 17.2721 26.7656ZM17.2397 24.0938H18.0132C18.9461 24.0566 18.9454 22.7243 18.0132 22.6875H17.2397C16.3068 22.7246 16.3075 24.0569 17.2397 24.0938Z" fill="white"/>
</svg>
